<mxfile host="app.diagrams.net" modified="2022-07-28T13:06:20.192Z" agent="5.0 (Windows NT 10.0; Win64; x64) AppleWebKit/537.36 (KHTML, like Gecko) Chrome/103.0.0.0 Safari/537.36" etag="OOU5VzJrwu9cZD_mgABW" version="20.2.0" type="github">
  <diagram id="CHQOyfcS4Jq5zgWORfXr" name="Page-1">
    <mxGraphModel dx="1422" dy="762" grid="1" gridSize="10" guides="1" tooltips="1" connect="1" arrows="1" fold="1" page="1" pageScale="1" pageWidth="827" pageHeight="1169" math="0" shadow="0">
      <root>
        <mxCell id="0" />
        <mxCell id="1" parent="0" />
        <mxCell id="clZujiyER_6VHMt9e892-6" style="edgeStyle=orthogonalEdgeStyle;rounded=0;orthogonalLoop=1;jettySize=auto;html=1;fontSize=11;" edge="1" parent="1" source="clZujiyER_6VHMt9e892-1" target="clZujiyER_6VHMt9e892-5">
          <mxGeometry relative="1" as="geometry" />
        </mxCell>
        <mxCell id="clZujiyER_6VHMt9e892-1" value="Application 1:&lt;br style=&quot;font-size: 11px;&quot;&gt;Apply for passport" style="ellipse;whiteSpace=wrap;html=1;aspect=fixed;fontSize=11;fillColor=#dae8fc;strokeColor=#6c8ebf;" vertex="1" parent="1">
          <mxGeometry x="210" y="70" width="80" height="80" as="geometry" />
        </mxCell>
        <mxCell id="clZujiyER_6VHMt9e892-3" style="edgeStyle=orthogonalEdgeStyle;rounded=0;orthogonalLoop=1;jettySize=auto;html=1;entryX=0;entryY=0.5;entryDx=0;entryDy=0;fontSize=11;" edge="1" parent="1" source="clZujiyER_6VHMt9e892-2" target="clZujiyER_6VHMt9e892-1">
          <mxGeometry relative="1" as="geometry" />
        </mxCell>
        <mxCell id="clZujiyER_6VHMt9e892-2" value="User" style="shape=image;html=1;verticalAlign=top;verticalLabelPosition=bottom;labelBackgroundColor=#ffffff;imageAspect=0;aspect=fixed;image=https://cdn0.iconfinder.com/data/icons/user-pictures/100/matureman1-128.png;fontSize=11;" vertex="1" parent="1">
          <mxGeometry x="80" y="86" width="48" height="48" as="geometry" />
        </mxCell>
        <mxCell id="clZujiyER_6VHMt9e892-5" value="Application 2:&lt;br style=&quot;font-size: 11px;&quot;&gt;Process application" style="ellipse;whiteSpace=wrap;html=1;aspect=fixed;fontSize=11;fillColor=#dae8fc;strokeColor=#6c8ebf;" vertex="1" parent="1">
          <mxGeometry x="370" y="70" width="80" height="80" as="geometry" />
        </mxCell>
        <mxCell id="clZujiyER_6VHMt9e892-7" value="Request" style="edgeStyle=orthogonalEdgeStyle;rounded=0;orthogonalLoop=1;jettySize=auto;html=1;fontSize=11;" edge="1" parent="1" source="clZujiyER_6VHMt9e892-8" target="clZujiyER_6VHMt9e892-11">
          <mxGeometry relative="1" as="geometry" />
        </mxCell>
        <mxCell id="clZujiyER_6VHMt9e892-16" style="edgeStyle=orthogonalEdgeStyle;rounded=0;orthogonalLoop=1;jettySize=auto;html=1;entryX=1;entryY=0.75;entryDx=0;entryDy=0;fontSize=11;exitX=0;exitY=1;exitDx=0;exitDy=0;" edge="1" parent="1" source="clZujiyER_6VHMt9e892-8" target="clZujiyER_6VHMt9e892-10">
          <mxGeometry relative="1" as="geometry">
            <Array as="points">
              <mxPoint x="262" y="346" />
            </Array>
          </mxGeometry>
        </mxCell>
        <mxCell id="clZujiyER_6VHMt9e892-17" value="Response" style="edgeLabel;html=1;align=center;verticalAlign=middle;resizable=0;points=[];fontSize=11;" vertex="1" connectable="0" parent="clZujiyER_6VHMt9e892-16">
          <mxGeometry x="-0.3105" y="1" relative="1" as="geometry">
            <mxPoint x="-32" as="offset" />
          </mxGeometry>
        </mxCell>
        <mxCell id="clZujiyER_6VHMt9e892-8" value="Application 1:&lt;br style=&quot;font-size: 11px;&quot;&gt;Apply for passport" style="ellipse;whiteSpace=wrap;html=1;aspect=fixed;fontSize=11;fillColor=#dae8fc;strokeColor=#6c8ebf;" vertex="1" parent="1">
          <mxGeometry x="250" y="280" width="80" height="80" as="geometry" />
        </mxCell>
        <mxCell id="clZujiyER_6VHMt9e892-9" value="Request" style="edgeStyle=orthogonalEdgeStyle;rounded=0;orthogonalLoop=1;jettySize=auto;html=1;entryX=0;entryY=0.5;entryDx=0;entryDy=0;fontSize=11;" edge="1" parent="1" source="clZujiyER_6VHMt9e892-10" target="clZujiyER_6VHMt9e892-8">
          <mxGeometry relative="1" as="geometry">
            <Array as="points">
              <mxPoint x="190" y="320" />
              <mxPoint x="190" y="320" />
            </Array>
          </mxGeometry>
        </mxCell>
        <mxCell id="clZujiyER_6VHMt9e892-10" value="User" style="shape=image;html=1;verticalAlign=top;verticalLabelPosition=bottom;labelBackgroundColor=#ffffff;imageAspect=0;aspect=fixed;image=https://cdn0.iconfinder.com/data/icons/user-pictures/100/matureman1-128.png;fontSize=11;" vertex="1" parent="1">
          <mxGeometry x="80" y="310" width="48" height="48" as="geometry" />
        </mxCell>
        <mxCell id="clZujiyER_6VHMt9e892-15" value="Response" style="edgeStyle=orthogonalEdgeStyle;rounded=0;orthogonalLoop=1;jettySize=auto;html=1;entryX=1;entryY=1;entryDx=0;entryDy=0;fontSize=11;exitX=0;exitY=1;exitDx=0;exitDy=0;" edge="1" parent="1" source="clZujiyER_6VHMt9e892-11" target="clZujiyER_6VHMt9e892-8">
          <mxGeometry relative="1" as="geometry" />
        </mxCell>
        <mxCell id="clZujiyER_6VHMt9e892-11" value="Application 2:&lt;br style=&quot;font-size: 11px;&quot;&gt;Process application" style="ellipse;whiteSpace=wrap;html=1;aspect=fixed;fontSize=11;fillColor=#dae8fc;strokeColor=#6c8ebf;" vertex="1" parent="1">
          <mxGeometry x="430" y="280" width="80" height="80" as="geometry" />
        </mxCell>
        <mxCell id="clZujiyER_6VHMt9e892-12" value="" style="sketch=0;outlineConnect=0;fontColor=#232F3E;gradientColor=none;fillColor=#3F8624;strokeColor=none;dashed=0;verticalLabelPosition=bottom;verticalAlign=top;align=center;html=1;fontSize=12;fontStyle=0;aspect=fixed;pointerEvents=1;shape=mxgraph.aws4.http_protocol;" vertex="1" parent="1">
          <mxGeometry x="170" y="280" width="30" height="30" as="geometry" />
        </mxCell>
        <mxCell id="clZujiyER_6VHMt9e892-13" value="" style="sketch=0;outlineConnect=0;fontColor=#232F3E;gradientColor=none;fillColor=#3F8624;strokeColor=none;dashed=0;verticalLabelPosition=bottom;verticalAlign=top;align=center;html=1;fontSize=12;fontStyle=0;aspect=fixed;pointerEvents=1;shape=mxgraph.aws4.http_protocol;" vertex="1" parent="1">
          <mxGeometry x="360" y="280" width="30" height="30" as="geometry" />
        </mxCell>
        <mxCell id="clZujiyER_6VHMt9e892-18" value="Request" style="edgeStyle=orthogonalEdgeStyle;rounded=0;orthogonalLoop=1;jettySize=auto;html=1;fontSize=11;" edge="1" parent="1" source="clZujiyER_6VHMt9e892-21" target="clZujiyER_6VHMt9e892-25">
          <mxGeometry relative="1" as="geometry" />
        </mxCell>
        <mxCell id="clZujiyER_6VHMt9e892-19" style="edgeStyle=orthogonalEdgeStyle;rounded=0;orthogonalLoop=1;jettySize=auto;html=1;entryX=1;entryY=0.75;entryDx=0;entryDy=0;fontSize=11;exitX=0;exitY=1;exitDx=0;exitDy=0;" edge="1" parent="1" source="clZujiyER_6VHMt9e892-21" target="clZujiyER_6VHMt9e892-23">
          <mxGeometry relative="1" as="geometry">
            <Array as="points">
              <mxPoint x="262" y="516" />
            </Array>
          </mxGeometry>
        </mxCell>
        <mxCell id="clZujiyER_6VHMt9e892-20" value="Response" style="edgeLabel;html=1;align=center;verticalAlign=middle;resizable=0;points=[];fontSize=11;" vertex="1" connectable="0" parent="clZujiyER_6VHMt9e892-19">
          <mxGeometry x="-0.3105" y="1" relative="1" as="geometry">
            <mxPoint x="-32" as="offset" />
          </mxGeometry>
        </mxCell>
        <mxCell id="clZujiyER_6VHMt9e892-21" value="Application 1:&lt;br style=&quot;font-size: 11px;&quot;&gt;Apply for passport" style="ellipse;whiteSpace=wrap;html=1;aspect=fixed;fontSize=11;fillColor=#dae8fc;strokeColor=#6c8ebf;" vertex="1" parent="1">
          <mxGeometry x="250" y="450" width="80" height="80" as="geometry" />
        </mxCell>
        <mxCell id="clZujiyER_6VHMt9e892-22" value="Request" style="edgeStyle=orthogonalEdgeStyle;rounded=0;orthogonalLoop=1;jettySize=auto;html=1;entryX=0;entryY=0.5;entryDx=0;entryDy=0;fontSize=11;" edge="1" parent="1" source="clZujiyER_6VHMt9e892-23" target="clZujiyER_6VHMt9e892-21">
          <mxGeometry relative="1" as="geometry">
            <Array as="points">
              <mxPoint x="190" y="490" />
              <mxPoint x="190" y="490" />
            </Array>
          </mxGeometry>
        </mxCell>
        <mxCell id="clZujiyER_6VHMt9e892-23" value="User" style="shape=image;html=1;verticalAlign=top;verticalLabelPosition=bottom;labelBackgroundColor=#ffffff;imageAspect=0;aspect=fixed;image=https://cdn0.iconfinder.com/data/icons/user-pictures/100/matureman1-128.png;fontSize=11;" vertex="1" parent="1">
          <mxGeometry x="80" y="480" width="48" height="48" as="geometry" />
        </mxCell>
        <mxCell id="clZujiyER_6VHMt9e892-24" value="Response" style="edgeStyle=orthogonalEdgeStyle;rounded=0;orthogonalLoop=1;jettySize=auto;html=1;entryX=1;entryY=1;entryDx=0;entryDy=0;fontSize=11;exitX=0;exitY=1;exitDx=0;exitDy=0;" edge="1" parent="1" source="clZujiyER_6VHMt9e892-25" target="clZujiyER_6VHMt9e892-21">
          <mxGeometry relative="1" as="geometry" />
        </mxCell>
        <mxCell id="clZujiyER_6VHMt9e892-31" value="Request" style="rounded=0;orthogonalLoop=1;jettySize=auto;html=1;fontSize=11;" edge="1" parent="1" source="clZujiyER_6VHMt9e892-25" target="clZujiyER_6VHMt9e892-28">
          <mxGeometry relative="1" as="geometry" />
        </mxCell>
        <mxCell id="clZujiyER_6VHMt9e892-33" value="Request" style="edgeStyle=none;rounded=0;orthogonalLoop=1;jettySize=auto;html=1;fontSize=11;entryX=0;entryY=0.5;entryDx=0;entryDy=0;" edge="1" parent="1" source="clZujiyER_6VHMt9e892-25" target="clZujiyER_6VHMt9e892-29">
          <mxGeometry relative="1" as="geometry" />
        </mxCell>
        <mxCell id="clZujiyER_6VHMt9e892-35" value="Request" style="edgeStyle=none;rounded=0;orthogonalLoop=1;jettySize=auto;html=1;entryX=0.5;entryY=0;entryDx=0;entryDy=0;fontSize=11;" edge="1" parent="1" source="clZujiyER_6VHMt9e892-25" target="clZujiyER_6VHMt9e892-30">
          <mxGeometry relative="1" as="geometry" />
        </mxCell>
        <mxCell id="clZujiyER_6VHMt9e892-25" value="Application 2:&lt;br style=&quot;font-size: 11px;&quot;&gt;Process application" style="ellipse;whiteSpace=wrap;html=1;aspect=fixed;fontSize=11;fillColor=#dae8fc;strokeColor=#6c8ebf;" vertex="1" parent="1">
          <mxGeometry x="430" y="450" width="80" height="80" as="geometry" />
        </mxCell>
        <mxCell id="clZujiyER_6VHMt9e892-26" value="" style="sketch=0;outlineConnect=0;fontColor=#232F3E;gradientColor=none;fillColor=#3F8624;strokeColor=none;dashed=0;verticalLabelPosition=bottom;verticalAlign=top;align=center;html=1;fontSize=12;fontStyle=0;aspect=fixed;pointerEvents=1;shape=mxgraph.aws4.http_protocol;" vertex="1" parent="1">
          <mxGeometry x="170" y="450" width="30" height="30" as="geometry" />
        </mxCell>
        <mxCell id="clZujiyER_6VHMt9e892-27" value="" style="sketch=0;outlineConnect=0;fontColor=#232F3E;gradientColor=none;fillColor=#3F8624;strokeColor=none;dashed=0;verticalLabelPosition=bottom;verticalAlign=top;align=center;html=1;fontSize=12;fontStyle=0;aspect=fixed;pointerEvents=1;shape=mxgraph.aws4.http_protocol;" vertex="1" parent="1">
          <mxGeometry x="360" y="450" width="30" height="30" as="geometry" />
        </mxCell>
        <mxCell id="clZujiyER_6VHMt9e892-32" value="Response" style="edgeStyle=none;rounded=0;orthogonalLoop=1;jettySize=auto;html=1;entryX=1;entryY=0.5;entryDx=0;entryDy=0;fontSize=11;exitX=0;exitY=1;exitDx=0;exitDy=0;" edge="1" parent="1" source="clZujiyER_6VHMt9e892-28" target="clZujiyER_6VHMt9e892-25">
          <mxGeometry relative="1" as="geometry" />
        </mxCell>
        <mxCell id="clZujiyER_6VHMt9e892-28" value="Application 3:&lt;br style=&quot;font-size: 11px;&quot;&gt;Generate photo" style="ellipse;whiteSpace=wrap;html=1;aspect=fixed;fontSize=11;fillColor=#dae8fc;strokeColor=#6c8ebf;" vertex="1" parent="1">
          <mxGeometry x="610" y="390" width="80" height="80" as="geometry" />
        </mxCell>
        <mxCell id="clZujiyER_6VHMt9e892-34" value="Response" style="edgeStyle=none;rounded=0;orthogonalLoop=1;jettySize=auto;html=1;entryX=1;entryY=1;entryDx=0;entryDy=0;fontSize=11;exitX=0;exitY=1;exitDx=0;exitDy=0;" edge="1" parent="1" source="clZujiyER_6VHMt9e892-29" target="clZujiyER_6VHMt9e892-25">
          <mxGeometry relative="1" as="geometry" />
        </mxCell>
        <mxCell id="clZujiyER_6VHMt9e892-29" value="Application 4:&lt;br style=&quot;font-size: 11px;&quot;&gt;Calculate passport content" style="ellipse;whiteSpace=wrap;html=1;aspect=fixed;fontSize=11;fillColor=#dae8fc;strokeColor=#6c8ebf;" vertex="1" parent="1">
          <mxGeometry x="610" y="505" width="80" height="80" as="geometry" />
        </mxCell>
        <mxCell id="clZujiyER_6VHMt9e892-36" value="Response" style="edgeStyle=none;rounded=0;orthogonalLoop=1;jettySize=auto;html=1;entryX=0.5;entryY=1;entryDx=0;entryDy=0;fontSize=11;" edge="1" parent="1" source="clZujiyER_6VHMt9e892-30" target="clZujiyER_6VHMt9e892-25">
          <mxGeometry x="-0.1869" y="8" relative="1" as="geometry">
            <mxPoint x="1" as="offset" />
          </mxGeometry>
        </mxCell>
        <mxCell id="clZujiyER_6VHMt9e892-30" value="Application 5:&lt;br style=&quot;font-size: 11px;&quot;&gt;Print passport" style="ellipse;whiteSpace=wrap;html=1;aspect=fixed;fontSize=11;fillColor=#dae8fc;strokeColor=#6c8ebf;" vertex="1" parent="1">
          <mxGeometry x="550" y="630" width="80" height="80" as="geometry" />
        </mxCell>
        <mxCell id="clZujiyER_6VHMt9e892-37" value="" style="sketch=0;outlineConnect=0;fontColor=#232F3E;gradientColor=none;fillColor=#3F8624;strokeColor=none;dashed=0;verticalLabelPosition=bottom;verticalAlign=top;align=center;html=1;fontSize=12;fontStyle=0;aspect=fixed;pointerEvents=1;shape=mxgraph.aws4.http_protocol;" vertex="1" parent="1">
          <mxGeometry x="540" y="415" width="30" height="30" as="geometry" />
        </mxCell>
        <mxCell id="clZujiyER_6VHMt9e892-38" value="" style="sketch=0;outlineConnect=0;fontColor=#232F3E;gradientColor=none;fillColor=#3F8624;strokeColor=none;dashed=0;verticalLabelPosition=bottom;verticalAlign=top;align=center;html=1;fontSize=12;fontStyle=0;aspect=fixed;pointerEvents=1;shape=mxgraph.aws4.http_protocol;" vertex="1" parent="1">
          <mxGeometry x="570" y="489" width="30" height="30" as="geometry" />
        </mxCell>
        <mxCell id="clZujiyER_6VHMt9e892-39" value="" style="sketch=0;outlineConnect=0;fontColor=#232F3E;gradientColor=none;fillColor=#3F8624;strokeColor=none;dashed=0;verticalLabelPosition=bottom;verticalAlign=top;align=center;html=1;fontSize=12;fontStyle=0;aspect=fixed;pointerEvents=1;shape=mxgraph.aws4.http_protocol;" vertex="1" parent="1">
          <mxGeometry x="500" y="610" width="30" height="30" as="geometry" />
        </mxCell>
        <mxCell id="clZujiyER_6VHMt9e892-40" value="Request" style="edgeStyle=orthogonalEdgeStyle;rounded=0;orthogonalLoop=1;jettySize=auto;html=1;fontSize=11;" edge="1" parent="1" source="clZujiyER_6VHMt9e892-43" target="clZujiyER_6VHMt9e892-47">
          <mxGeometry relative="1" as="geometry" />
        </mxCell>
        <mxCell id="clZujiyER_6VHMt9e892-41" style="edgeStyle=orthogonalEdgeStyle;rounded=0;orthogonalLoop=1;jettySize=auto;html=1;entryX=1;entryY=0.75;entryDx=0;entryDy=0;fontSize=11;exitX=0;exitY=1;exitDx=0;exitDy=0;" edge="1" parent="1" source="clZujiyER_6VHMt9e892-43" target="clZujiyER_6VHMt9e892-45">
          <mxGeometry relative="1" as="geometry">
            <Array as="points">
              <mxPoint x="282" y="906" />
            </Array>
          </mxGeometry>
        </mxCell>
        <mxCell id="clZujiyER_6VHMt9e892-42" value="Response" style="edgeLabel;html=1;align=center;verticalAlign=middle;resizable=0;points=[];fontSize=11;" vertex="1" connectable="0" parent="clZujiyER_6VHMt9e892-41">
          <mxGeometry x="-0.3105" y="1" relative="1" as="geometry">
            <mxPoint x="-32" as="offset" />
          </mxGeometry>
        </mxCell>
        <mxCell id="clZujiyER_6VHMt9e892-51" style="edgeStyle=none;rounded=0;orthogonalLoop=1;jettySize=auto;html=1;fontSize=11;" edge="1" parent="1" source="clZujiyER_6VHMt9e892-43" target="clZujiyER_6VHMt9e892-50">
          <mxGeometry relative="1" as="geometry" />
        </mxCell>
        <mxCell id="clZujiyER_6VHMt9e892-43" value="Application 1:&lt;br style=&quot;font-size: 11px;&quot;&gt;Apply for passport" style="ellipse;whiteSpace=wrap;html=1;aspect=fixed;fontSize=11;fillColor=#dae8fc;strokeColor=#6c8ebf;" vertex="1" parent="1">
          <mxGeometry x="270" y="840" width="80" height="80" as="geometry" />
        </mxCell>
        <mxCell id="clZujiyER_6VHMt9e892-44" value="Request" style="edgeStyle=orthogonalEdgeStyle;rounded=0;orthogonalLoop=1;jettySize=auto;html=1;entryX=0;entryY=0.5;entryDx=0;entryDy=0;fontSize=11;" edge="1" parent="1" source="clZujiyER_6VHMt9e892-45" target="clZujiyER_6VHMt9e892-43">
          <mxGeometry relative="1" as="geometry">
            <Array as="points">
              <mxPoint x="210" y="880" />
              <mxPoint x="210" y="880" />
            </Array>
          </mxGeometry>
        </mxCell>
        <mxCell id="clZujiyER_6VHMt9e892-45" value="User" style="shape=image;html=1;verticalAlign=top;verticalLabelPosition=bottom;labelBackgroundColor=#ffffff;imageAspect=0;aspect=fixed;image=https://cdn0.iconfinder.com/data/icons/user-pictures/100/matureman1-128.png;fontSize=11;" vertex="1" parent="1">
          <mxGeometry x="100" y="870" width="48" height="48" as="geometry" />
        </mxCell>
        <mxCell id="clZujiyER_6VHMt9e892-46" value="Response" style="edgeStyle=orthogonalEdgeStyle;rounded=0;orthogonalLoop=1;jettySize=auto;html=1;entryX=1;entryY=1;entryDx=0;entryDy=0;fontSize=11;exitX=0;exitY=1;exitDx=0;exitDy=0;" edge="1" parent="1" source="clZujiyER_6VHMt9e892-47" target="clZujiyER_6VHMt9e892-43">
          <mxGeometry relative="1" as="geometry" />
        </mxCell>
        <mxCell id="clZujiyER_6VHMt9e892-47" value="Application 2:&lt;br style=&quot;font-size: 11px;&quot;&gt;Process application" style="ellipse;whiteSpace=wrap;html=1;aspect=fixed;fontSize=11;fillColor=#dae8fc;strokeColor=#6c8ebf;" vertex="1" parent="1">
          <mxGeometry x="450" y="840" width="80" height="80" as="geometry" />
        </mxCell>
        <mxCell id="clZujiyER_6VHMt9e892-48" value="" style="sketch=0;outlineConnect=0;fontColor=#232F3E;gradientColor=none;fillColor=#3F8624;strokeColor=none;dashed=0;verticalLabelPosition=bottom;verticalAlign=top;align=center;html=1;fontSize=12;fontStyle=0;aspect=fixed;pointerEvents=1;shape=mxgraph.aws4.http_protocol;" vertex="1" parent="1">
          <mxGeometry x="190" y="840" width="30" height="30" as="geometry" />
        </mxCell>
        <mxCell id="clZujiyER_6VHMt9e892-49" value="" style="sketch=0;outlineConnect=0;fontColor=#232F3E;gradientColor=none;fillColor=#3F8624;strokeColor=none;dashed=0;verticalLabelPosition=bottom;verticalAlign=top;align=center;html=1;fontSize=12;fontStyle=0;aspect=fixed;pointerEvents=1;shape=mxgraph.aws4.http_protocol;" vertex="1" parent="1">
          <mxGeometry x="380" y="840" width="30" height="30" as="geometry" />
        </mxCell>
        <mxCell id="clZujiyER_6VHMt9e892-50" value="Application data" style="shape=cylinder3;whiteSpace=wrap;html=1;boundedLbl=1;backgroundOutline=1;size=15;fontSize=11;fillColor=#fff2cc;strokeColor=#d6b656;" vertex="1" parent="1">
          <mxGeometry x="280" y="960" width="60" height="80" as="geometry" />
        </mxCell>
        <mxCell id="clZujiyER_6VHMt9e892-64" style="edgeStyle=none;rounded=0;orthogonalLoop=1;jettySize=auto;html=1;entryX=0;entryY=0.5;entryDx=0;entryDy=0;entryPerimeter=0;fontSize=11;" edge="1" parent="1" source="clZujiyER_6VHMt9e892-53" target="clZujiyER_6VHMt9e892-63">
          <mxGeometry relative="1" as="geometry" />
        </mxCell>
        <mxCell id="clZujiyER_6VHMt9e892-53" value="Application 1:&lt;br style=&quot;font-size: 11px;&quot;&gt;Replica 1" style="ellipse;whiteSpace=wrap;html=1;aspect=fixed;fontSize=11;fillColor=#dae8fc;strokeColor=#6c8ebf;" vertex="1" parent="1">
          <mxGeometry x="330" y="1110" width="80" height="80" as="geometry" />
        </mxCell>
        <mxCell id="clZujiyER_6VHMt9e892-55" value="User" style="shape=image;html=1;verticalAlign=top;verticalLabelPosition=bottom;labelBackgroundColor=#ffffff;imageAspect=0;aspect=fixed;image=https://cdn0.iconfinder.com/data/icons/user-pictures/100/matureman1-128.png;fontSize=11;" vertex="1" parent="1">
          <mxGeometry x="140" y="1196" width="48" height="48" as="geometry" />
        </mxCell>
        <mxCell id="clZujiyER_6VHMt9e892-56" value="Application 2:&lt;br style=&quot;font-size: 11px;&quot;&gt;Replica 1" style="ellipse;whiteSpace=wrap;html=1;aspect=fixed;fontSize=11;fillColor=#dae8fc;strokeColor=#6c8ebf;" vertex="1" parent="1">
          <mxGeometry x="570" y="1100" width="80" height="80" as="geometry" />
        </mxCell>
        <mxCell id="clZujiyER_6VHMt9e892-61" style="edgeStyle=none;rounded=0;orthogonalLoop=1;jettySize=auto;html=1;entryX=0;entryY=0;entryDx=0;entryDy=0;fontSize=11;" edge="1" parent="1" source="clZujiyER_6VHMt9e892-57" target="clZujiyER_6VHMt9e892-60">
          <mxGeometry relative="1" as="geometry" />
        </mxCell>
        <mxCell id="clZujiyER_6VHMt9e892-62" style="edgeStyle=none;rounded=0;orthogonalLoop=1;jettySize=auto;html=1;fontSize=11;" edge="1" parent="1" source="clZujiyER_6VHMt9e892-57" target="clZujiyER_6VHMt9e892-53">
          <mxGeometry relative="1" as="geometry" />
        </mxCell>
        <mxCell id="clZujiyER_6VHMt9e892-57" value="Load Balancer" style="sketch=0;aspect=fixed;pointerEvents=1;shadow=0;dashed=0;html=1;strokeColor=none;labelPosition=center;verticalLabelPosition=bottom;verticalAlign=top;align=center;fillColor=#00188D;shape=mxgraph.azure.load_balancer_generic;fontSize=11;" vertex="1" parent="1">
          <mxGeometry x="250" y="1195" width="37" height="50" as="geometry" />
        </mxCell>
        <mxCell id="clZujiyER_6VHMt9e892-59" value="" style="edgeStyle=orthogonalEdgeStyle;rounded=0;orthogonalLoop=1;jettySize=auto;html=1;entryX=0;entryY=0.5;entryDx=0;entryDy=0;fontSize=11;endArrow=none;" edge="1" parent="1" source="clZujiyER_6VHMt9e892-55" target="clZujiyER_6VHMt9e892-57">
          <mxGeometry relative="1" as="geometry">
            <mxPoint x="188" y="1220" as="sourcePoint" />
            <mxPoint x="270" y="1220" as="targetPoint" />
          </mxGeometry>
        </mxCell>
        <mxCell id="clZujiyER_6VHMt9e892-65" style="edgeStyle=none;rounded=0;orthogonalLoop=1;jettySize=auto;html=1;entryX=0;entryY=0.5;entryDx=0;entryDy=0;entryPerimeter=0;fontSize=11;" edge="1" parent="1" source="clZujiyER_6VHMt9e892-60" target="clZujiyER_6VHMt9e892-63">
          <mxGeometry relative="1" as="geometry" />
        </mxCell>
        <mxCell id="clZujiyER_6VHMt9e892-60" value="Application 1:&lt;br style=&quot;font-size: 11px;&quot;&gt;Replica 2" style="ellipse;whiteSpace=wrap;html=1;aspect=fixed;fontSize=11;fillColor=#dae8fc;strokeColor=#6c8ebf;" vertex="1" parent="1">
          <mxGeometry x="330" y="1250" width="80" height="80" as="geometry" />
        </mxCell>
        <mxCell id="clZujiyER_6VHMt9e892-67" style="edgeStyle=none;rounded=0;orthogonalLoop=1;jettySize=auto;html=1;entryX=0;entryY=0.5;entryDx=0;entryDy=0;fontSize=11;" edge="1" parent="1" source="clZujiyER_6VHMt9e892-63" target="clZujiyER_6VHMt9e892-56">
          <mxGeometry relative="1" as="geometry" />
        </mxCell>
        <mxCell id="clZujiyER_6VHMt9e892-68" style="edgeStyle=none;rounded=0;orthogonalLoop=1;jettySize=auto;html=1;entryX=0;entryY=0.5;entryDx=0;entryDy=0;fontSize=11;" edge="1" parent="1" source="clZujiyER_6VHMt9e892-63" target="clZujiyER_6VHMt9e892-66">
          <mxGeometry relative="1" as="geometry" />
        </mxCell>
        <mxCell id="clZujiyER_6VHMt9e892-63" value="Load Balancer" style="sketch=0;aspect=fixed;pointerEvents=1;shadow=0;dashed=0;html=1;strokeColor=none;labelPosition=center;verticalLabelPosition=bottom;verticalAlign=top;align=center;fillColor=#00188D;shape=mxgraph.azure.load_balancer_generic;fontSize=11;" vertex="1" parent="1">
          <mxGeometry x="463" y="1195" width="37" height="50" as="geometry" />
        </mxCell>
        <mxCell id="clZujiyER_6VHMt9e892-66" value="Application 2:&lt;br style=&quot;font-size: 11px;&quot;&gt;Replica 2" style="ellipse;whiteSpace=wrap;html=1;aspect=fixed;fontSize=11;fillColor=#dae8fc;strokeColor=#6c8ebf;" vertex="1" parent="1">
          <mxGeometry x="570" y="1250" width="80" height="80" as="geometry" />
        </mxCell>
        <mxCell id="clZujiyER_6VHMt9e892-70" style="edgeStyle=orthogonalEdgeStyle;rounded=0;orthogonalLoop=1;jettySize=auto;html=1;entryX=1;entryY=0.75;entryDx=0;entryDy=0;fontSize=11;exitX=0;exitY=1;exitDx=0;exitDy=0;" edge="1" parent="1" source="clZujiyER_6VHMt9e892-72" target="clZujiyER_6VHMt9e892-74">
          <mxGeometry relative="1" as="geometry">
            <Array as="points">
              <mxPoint x="282" y="1536" />
            </Array>
          </mxGeometry>
        </mxCell>
        <mxCell id="clZujiyER_6VHMt9e892-71" value="Response" style="edgeLabel;html=1;align=center;verticalAlign=middle;resizable=0;points=[];fontSize=11;" vertex="1" connectable="0" parent="clZujiyER_6VHMt9e892-70">
          <mxGeometry x="-0.3105" y="1" relative="1" as="geometry">
            <mxPoint x="-32" as="offset" />
          </mxGeometry>
        </mxCell>
        <mxCell id="clZujiyER_6VHMt9e892-82" value="Send message" style="edgeStyle=none;rounded=0;orthogonalLoop=1;jettySize=auto;html=1;fontSize=11;" edge="1" parent="1" source="clZujiyER_6VHMt9e892-72" target="clZujiyER_6VHMt9e892-81">
          <mxGeometry relative="1" as="geometry" />
        </mxCell>
        <mxCell id="clZujiyER_6VHMt9e892-72" value="Application 1:&lt;br style=&quot;font-size: 11px;&quot;&gt;Apply for passport" style="ellipse;whiteSpace=wrap;html=1;aspect=fixed;fontSize=11;fillColor=#dae8fc;strokeColor=#6c8ebf;" vertex="1" parent="1">
          <mxGeometry x="270" y="1470" width="80" height="80" as="geometry" />
        </mxCell>
        <mxCell id="clZujiyER_6VHMt9e892-73" value="Request" style="edgeStyle=orthogonalEdgeStyle;rounded=0;orthogonalLoop=1;jettySize=auto;html=1;entryX=0;entryY=0.5;entryDx=0;entryDy=0;fontSize=11;" edge="1" parent="1" source="clZujiyER_6VHMt9e892-74" target="clZujiyER_6VHMt9e892-72">
          <mxGeometry relative="1" as="geometry">
            <Array as="points">
              <mxPoint x="210" y="1510" />
              <mxPoint x="210" y="1510" />
            </Array>
          </mxGeometry>
        </mxCell>
        <mxCell id="clZujiyER_6VHMt9e892-74" value="User" style="shape=image;html=1;verticalAlign=top;verticalLabelPosition=bottom;labelBackgroundColor=#ffffff;imageAspect=0;aspect=fixed;image=https://cdn0.iconfinder.com/data/icons/user-pictures/100/matureman1-128.png;fontSize=11;" vertex="1" parent="1">
          <mxGeometry x="100" y="1500" width="48" height="48" as="geometry" />
        </mxCell>
        <mxCell id="clZujiyER_6VHMt9e892-76" value="Application 2:&lt;br style=&quot;font-size: 11px;&quot;&gt;Process application" style="ellipse;whiteSpace=wrap;html=1;aspect=fixed;fontSize=11;fillColor=#dae8fc;strokeColor=#6c8ebf;" vertex="1" parent="1">
          <mxGeometry x="660" y="1470" width="80" height="80" as="geometry" />
        </mxCell>
        <mxCell id="clZujiyER_6VHMt9e892-77" value="" style="sketch=0;outlineConnect=0;fontColor=#232F3E;gradientColor=none;fillColor=#3F8624;strokeColor=none;dashed=0;verticalLabelPosition=bottom;verticalAlign=top;align=center;html=1;fontSize=12;fontStyle=0;aspect=fixed;pointerEvents=1;shape=mxgraph.aws4.http_protocol;" vertex="1" parent="1">
          <mxGeometry x="190" y="1470" width="30" height="30" as="geometry" />
        </mxCell>
        <mxCell id="clZujiyER_6VHMt9e892-79" value="" style="shape=message;html=1;whiteSpace=wrap;html=1;outlineConnect=0;fontSize=11;" vertex="1" parent="1">
          <mxGeometry x="395" y="1480" width="30" height="20" as="geometry" />
        </mxCell>
        <mxCell id="clZujiyER_6VHMt9e892-83" value="Receive message" style="edgeStyle=none;rounded=0;orthogonalLoop=1;jettySize=auto;html=1;fontSize=11;" edge="1" parent="1" source="clZujiyER_6VHMt9e892-81" target="clZujiyER_6VHMt9e892-76">
          <mxGeometry relative="1" as="geometry" />
        </mxCell>
        <mxCell id="clZujiyER_6VHMt9e892-81" value="Message Broker" style="rounded=1;whiteSpace=wrap;html=1;fontSize=11;fillColor=#e1d5e7;strokeColor=#9673a6;" vertex="1" parent="1">
          <mxGeometry x="461.5" y="1485" width="58.5" height="50" as="geometry" />
        </mxCell>
        <mxCell id="clZujiyER_6VHMt9e892-84" value="" style="shape=message;html=1;whiteSpace=wrap;html=1;outlineConnect=0;fontSize=11;" vertex="1" parent="1">
          <mxGeometry x="575" y="1480" width="30" height="20" as="geometry" />
        </mxCell>
        <mxCell id="clZujiyER_6VHMt9e892-109" value="Send message" style="edgeStyle=none;rounded=0;orthogonalLoop=1;jettySize=auto;html=1;fontSize=11;" edge="1" parent="1" source="clZujiyER_6VHMt9e892-110" target="clZujiyER_6VHMt9e892-114">
          <mxGeometry relative="1" as="geometry" />
        </mxCell>
        <mxCell id="clZujiyER_6VHMt9e892-110" value="Application 1" style="ellipse;whiteSpace=wrap;html=1;aspect=fixed;fontSize=11;fillColor=#dae8fc;strokeColor=#6c8ebf;" vertex="1" parent="1">
          <mxGeometry x="120" y="1720" width="80" height="80" as="geometry" />
        </mxCell>
        <mxCell id="clZujiyER_6VHMt9e892-111" value="Application 2" style="ellipse;whiteSpace=wrap;html=1;aspect=fixed;fontSize=11;fillColor=#dae8fc;strokeColor=#6c8ebf;" vertex="1" parent="1">
          <mxGeometry x="495" y="1720" width="80" height="80" as="geometry" />
        </mxCell>
        <mxCell id="clZujiyER_6VHMt9e892-112" value="" style="shape=message;html=1;whiteSpace=wrap;html=1;outlineConnect=0;fontSize=11;" vertex="1" parent="1">
          <mxGeometry x="245" y="1730" width="30" height="20" as="geometry" />
        </mxCell>
        <mxCell id="clZujiyER_6VHMt9e892-113" value="Receive message" style="edgeStyle=none;rounded=0;orthogonalLoop=1;jettySize=auto;html=1;fontSize=11;" edge="1" parent="1" source="clZujiyER_6VHMt9e892-114" target="clZujiyER_6VHMt9e892-111">
          <mxGeometry relative="1" as="geometry" />
        </mxCell>
        <mxCell id="clZujiyER_6VHMt9e892-114" value="Queue" style="rounded=1;whiteSpace=wrap;html=1;fontSize=11;fillColor=#e1d5e7;strokeColor=#9673a6;" vertex="1" parent="1">
          <mxGeometry x="311.5" y="1735" width="58.5" height="50" as="geometry" />
        </mxCell>
        <mxCell id="clZujiyER_6VHMt9e892-115" value="" style="shape=message;html=1;whiteSpace=wrap;html=1;outlineConnect=0;fontSize=11;" vertex="1" parent="1">
          <mxGeometry x="410" y="1730" width="30" height="20" as="geometry" />
        </mxCell>
        <mxCell id="clZujiyER_6VHMt9e892-119" value="Send message" style="edgeStyle=none;rounded=0;orthogonalLoop=1;jettySize=auto;html=1;fontSize=11;" edge="1" parent="1" source="clZujiyER_6VHMt9e892-120" target="clZujiyER_6VHMt9e892-124">
          <mxGeometry relative="1" as="geometry" />
        </mxCell>
        <mxCell id="clZujiyER_6VHMt9e892-120" value="Application 1" style="ellipse;whiteSpace=wrap;html=1;aspect=fixed;fontSize=11;fillColor=#dae8fc;strokeColor=#6c8ebf;" vertex="1" parent="1">
          <mxGeometry x="115" y="1870" width="80" height="80" as="geometry" />
        </mxCell>
        <mxCell id="clZujiyER_6VHMt9e892-122" value="" style="shape=message;html=1;whiteSpace=wrap;html=1;outlineConnect=0;fontSize=11;" vertex="1" parent="1">
          <mxGeometry x="240" y="1880" width="30" height="20" as="geometry" />
        </mxCell>
        <mxCell id="clZujiyER_6VHMt9e892-128" style="edgeStyle=none;rounded=0;orthogonalLoop=1;jettySize=auto;html=1;entryX=0;entryY=0.5;entryDx=0;entryDy=0;fontSize=11;" edge="1" parent="1" source="clZujiyER_6VHMt9e892-124" target="clZujiyER_6VHMt9e892-126">
          <mxGeometry relative="1" as="geometry" />
        </mxCell>
        <mxCell id="clZujiyER_6VHMt9e892-129" style="edgeStyle=none;rounded=0;orthogonalLoop=1;jettySize=auto;html=1;fontSize=11;" edge="1" parent="1" source="clZujiyER_6VHMt9e892-124">
          <mxGeometry relative="1" as="geometry">
            <mxPoint x="460" y="1970" as="targetPoint" />
          </mxGeometry>
        </mxCell>
        <mxCell id="clZujiyER_6VHMt9e892-124" value="Topic" style="rounded=1;whiteSpace=wrap;html=1;fontSize=11;fillColor=#e1d5e7;strokeColor=#9673a6;" vertex="1" parent="1">
          <mxGeometry x="306.5" y="1885" width="58.5" height="50" as="geometry" />
        </mxCell>
        <mxCell id="clZujiyER_6VHMt9e892-131" value="Receive Message" style="edgeStyle=none;rounded=0;orthogonalLoop=1;jettySize=auto;html=1;fontSize=11;" edge="1" parent="1" source="clZujiyER_6VHMt9e892-126" target="clZujiyER_6VHMt9e892-130">
          <mxGeometry relative="1" as="geometry" />
        </mxCell>
        <mxCell id="clZujiyER_6VHMt9e892-126" value="Subscription 1" style="rounded=1;whiteSpace=wrap;html=1;fontSize=11;fillColor=#e1d5e7;strokeColor=#9673a6;" vertex="1" parent="1">
          <mxGeometry x="461.5" y="1850" width="67" height="50" as="geometry" />
        </mxCell>
        <mxCell id="clZujiyER_6VHMt9e892-138" style="edgeStyle=none;rounded=0;orthogonalLoop=1;jettySize=auto;html=1;entryX=0;entryY=0.5;entryDx=0;entryDy=0;fontSize=11;" edge="1" parent="1" source="clZujiyER_6VHMt9e892-127" target="clZujiyER_6VHMt9e892-137">
          <mxGeometry relative="1" as="geometry" />
        </mxCell>
        <mxCell id="clZujiyER_6VHMt9e892-127" value="Subscription&lt;br&gt;2" style="rounded=1;whiteSpace=wrap;html=1;fontSize=11;fillColor=#e1d5e7;strokeColor=#9673a6;" vertex="1" parent="1">
          <mxGeometry x="461.5" y="1945" width="67" height="50" as="geometry" />
        </mxCell>
        <mxCell id="clZujiyER_6VHMt9e892-130" value="Application 2" style="ellipse;whiteSpace=wrap;html=1;aspect=fixed;fontSize=11;fillColor=#dae8fc;strokeColor=#6c8ebf;" vertex="1" parent="1">
          <mxGeometry x="680" y="1835" width="80" height="80" as="geometry" />
        </mxCell>
        <mxCell id="clZujiyER_6VHMt9e892-132" value="" style="shape=message;html=1;whiteSpace=wrap;html=1;outlineConnect=0;fontSize=11;" vertex="1" parent="1">
          <mxGeometry x="590" y="1840" width="30" height="20" as="geometry" />
        </mxCell>
        <mxCell id="clZujiyER_6VHMt9e892-134" value="Receive Message" style="edgeStyle=none;rounded=0;orthogonalLoop=1;jettySize=auto;html=1;fontSize=11;" edge="1" parent="1" target="clZujiyER_6VHMt9e892-135">
          <mxGeometry relative="1" as="geometry">
            <mxPoint x="528.5" y="1970" as="sourcePoint" />
          </mxGeometry>
        </mxCell>
        <mxCell id="clZujiyER_6VHMt9e892-135" value="Application 3:&lt;br&gt;Replica 1" style="ellipse;whiteSpace=wrap;html=1;aspect=fixed;fontSize=11;fillColor=#dae8fc;strokeColor=#6c8ebf;" vertex="1" parent="1">
          <mxGeometry x="680" y="1930" width="80" height="80" as="geometry" />
        </mxCell>
        <mxCell id="clZujiyER_6VHMt9e892-136" value="" style="shape=message;html=1;whiteSpace=wrap;html=1;outlineConnect=0;fontSize=11;" vertex="1" parent="1">
          <mxGeometry x="590" y="1935" width="30" height="20" as="geometry" />
        </mxCell>
        <mxCell id="clZujiyER_6VHMt9e892-137" value="Application 3:&lt;br&gt;Replica 2" style="ellipse;whiteSpace=wrap;html=1;aspect=fixed;fontSize=11;fillColor=#dae8fc;strokeColor=#6c8ebf;" vertex="1" parent="1">
          <mxGeometry x="680" y="2030" width="80" height="80" as="geometry" />
        </mxCell>
        <mxCell id="clZujiyER_6VHMt9e892-139" value="Send message with Session Id: 1" style="edgeStyle=none;rounded=0;orthogonalLoop=1;jettySize=auto;html=1;fontSize=11;" edge="1" parent="1" source="clZujiyER_6VHMt9e892-140" target="clZujiyER_6VHMt9e892-144">
          <mxGeometry relative="1" as="geometry" />
        </mxCell>
        <mxCell id="clZujiyER_6VHMt9e892-140" value="Application 1" style="ellipse;whiteSpace=wrap;html=1;aspect=fixed;fontSize=11;fillColor=#dae8fc;strokeColor=#6c8ebf;" vertex="1" parent="1">
          <mxGeometry x="120" y="2160" width="80" height="80" as="geometry" />
        </mxCell>
        <mxCell id="clZujiyER_6VHMt9e892-141" value="Application 2: Replica 1" style="ellipse;whiteSpace=wrap;html=1;aspect=fixed;fontSize=11;fillColor=#dae8fc;strokeColor=#6c8ebf;" vertex="1" parent="1">
          <mxGeometry x="720" y="2160" width="80" height="80" as="geometry" />
        </mxCell>
        <mxCell id="clZujiyER_6VHMt9e892-142" value="" style="shape=message;html=1;whiteSpace=wrap;html=1;outlineConnect=0;fontSize=11;" vertex="1" parent="1">
          <mxGeometry x="295" y="2170" width="30" height="20" as="geometry" />
        </mxCell>
        <mxCell id="clZujiyER_6VHMt9e892-143" value="Receive message with session Id: 1" style="edgeStyle=none;rounded=0;orthogonalLoop=1;jettySize=auto;html=1;fontSize=11;" edge="1" parent="1" source="clZujiyER_6VHMt9e892-144" target="clZujiyER_6VHMt9e892-141">
          <mxGeometry relative="1" as="geometry" />
        </mxCell>
        <mxCell id="clZujiyER_6VHMt9e892-149" value="Receive message with session Id: 2" style="edgeStyle=none;rounded=0;orthogonalLoop=1;jettySize=auto;html=1;entryX=0;entryY=0.5;entryDx=0;entryDy=0;fontSize=11;" edge="1" parent="1" source="clZujiyER_6VHMt9e892-144" target="clZujiyER_6VHMt9e892-148">
          <mxGeometry relative="1" as="geometry" />
        </mxCell>
        <mxCell id="clZujiyER_6VHMt9e892-144" value="Session Queue" style="rounded=1;whiteSpace=wrap;html=1;fontSize=11;fillColor=#e1d5e7;strokeColor=#9673a6;" vertex="1" parent="1">
          <mxGeometry x="423.25" y="2175" width="58.5" height="50" as="geometry" />
        </mxCell>
        <mxCell id="clZujiyER_6VHMt9e892-145" value="" style="shape=message;html=1;whiteSpace=wrap;html=1;outlineConnect=0;fontSize=11;" vertex="1" parent="1">
          <mxGeometry x="590" y="2170" width="30" height="20" as="geometry" />
        </mxCell>
        <mxCell id="clZujiyER_6VHMt9e892-148" value="Application 2: Replica 2" style="ellipse;whiteSpace=wrap;html=1;aspect=fixed;fontSize=11;fillColor=#dae8fc;strokeColor=#6c8ebf;" vertex="1" parent="1">
          <mxGeometry x="720" y="2280" width="80" height="80" as="geometry" />
        </mxCell>
        <mxCell id="clZujiyER_6VHMt9e892-150" value="" style="shape=message;html=1;whiteSpace=wrap;html=1;outlineConnect=0;fontSize=11;fillColor=#f5f5f5;fontColor=#333333;strokeColor=#666666;" vertex="1" parent="1">
          <mxGeometry x="590" y="2240" width="30" height="20" as="geometry" />
        </mxCell>
      </root>
    </mxGraphModel>
  </diagram>
</mxfile>
